<svg width="76" height="76" viewBox="0 0 76 76" fill="none" xmlns="http://www.w3.org/2000/svg">
<path d="M14.5664 32.2999V36.7333M61.4331 34.2V38.7916M47.9747 37.3666V48.9249M41.3247 41.325V55.7333M34.6747 35.7833V49.2416M28.0247 32.2999V43.3833M21.2164 27.075V37.8416M54.7831 34.2V43.7" stroke="black" stroke-linecap="round" stroke-linejoin="round"/>
<path d="M41.3253 56.9999C42.0248 56.9999 42.5919 56.4328 42.5919 55.7332C42.5919 55.0337 42.0248 54.4666 41.3253 54.4666C40.6257 54.4666 40.0586 55.0337 40.0586 55.7332C40.0586 56.4328 40.6257 56.9999 41.3253 56.9999Z" fill="black"/>
<path d="M15.0404 8.70825C11.557 8.70825 8.70703 11.5583 8.70703 15.0416V60.9583C8.70703 64.4416 11.557 67.2916 15.0404 67.2916H60.957C64.4404 67.2916 67.2904 64.4416 67.2904 60.9583V15.0416C67.2904 11.5583 64.4404 8.70825 60.957 8.70825H15.0404Z" stroke="black" stroke-linecap="round" stroke-linejoin="round"/>
</svg>
