<svg width="80" height="80" viewBox="0 0 80 80" fill="none" xmlns="http://www.w3.org/2000/svg">
<path d="M48.6953 70.8334C60.921 70.8334 70.8319 60.9225 70.8319 48.6967C70.8319 36.471 60.921 26.5601 48.6953 26.5601C36.4695 26.5601 26.5586 36.471 26.5586 48.6967C26.5586 60.9225 36.4695 70.8334 48.6953 70.8334Z" stroke="black" stroke-linecap="round" stroke-linejoin="round"/>
<path d="M41.8581 57.1567C42.514 57.9841 43.3588 58.642 44.3216 59.0753C45.2844 59.5085 46.3372 59.7045 47.3914 59.6467H50.7131C52.1808 59.6467 53.5885 59.0636 54.6263 58.0258C55.6642 56.9879 56.2472 55.5803 56.2472 54.1125C56.2472 52.6448 55.6642 51.2371 54.6263 50.1993C53.5885 49.1614 52.1808 48.5783 50.7131 48.5783H47.1147C45.647 48.5783 44.2393 47.9953 43.2015 46.9574C42.1636 45.9196 41.5806 44.5119 41.5806 43.0442C41.5806 41.5764 42.1636 40.1688 43.2015 39.1309C44.2393 38.0931 45.647 37.51 47.1147 37.51H50.4364C51.4973 37.3905 52.5708 37.5586 53.5443 37.9967C54.5179 38.4348 55.3556 39.1267 55.9697 40M48.7747 34.4667V62.1367M27.4914 41.1533C26.7448 40.4535 26.1504 39.6074 25.7452 38.6677C25.34 37.728 25.1328 36.715 25.1364 35.6917V28.4967C25.1324 27.5145 25.323 26.5412 25.6971 25.633C26.0712 24.7248 26.6214 23.8996 27.3161 23.2051C28.0107 22.5107 28.8359 21.9606 29.7442 21.5867C30.6525 21.2128 31.6258 21.0225 32.6081 21.0267C33.7181 21.0467 34.8109 21.3039 35.8133 21.7811C36.8157 22.2583 37.7044 22.9444 38.4197 23.7933M21.8164 29.05H31.2247M21.8164 34.5833H31.2247" stroke="black" stroke-linecap="round" stroke-linejoin="round"/>
<path d="M26.7009 52.9566C22.804 52.128 19.2029 50.2631 16.2774 47.5586C13.352 44.8541 11.2106 41.4102 10.0793 37.5901C8.94792 33.7701 8.86847 29.7155 9.8493 25.8541C10.8301 21.9926 12.8349 18.4675 15.6521 15.6504C18.4694 12.8334 21.9947 10.8288 25.8562 9.84822C29.7177 8.86763 33.7722 8.94734 37.5922 10.079C41.4122 11.2106 44.8559 13.3521 47.5603 16.2777C50.2646 19.2033 52.1293 22.8046 52.9576 26.7016" stroke="black" stroke-linecap="round" stroke-linejoin="round"/>
</svg>
