<svg width="86" height="72" viewBox="0 0 86 72" fill="none" xmlns="http://www.w3.org/2000/svg">
<mask id="path-1-inside-1_1005_11804" fill="white">
<path d="M0.113281 71.25V60.2833C0.113281 58.1292 0.668143 56.1056 1.77786 54.2125C2.88759 52.3194 4.42162 50.8833 6.37995 49.9042C9.70912 48.2069 13.4626 46.7708 17.6404 45.5958C21.8181 44.4208 26.4202 43.8333 31.4466 43.8333C36.473 43.8333 41.0751 44.4208 45.2529 45.5958C49.4306 46.7708 53.1841 48.2069 56.5133 49.9042C58.4716 50.8833 60.0056 52.3194 61.1154 54.2125C62.2251 56.1056 62.7799 58.1292 62.7799 60.2833V71.25H0.113281ZM31.4466 39.9167C27.1383 39.9167 23.4501 38.3826 20.382 35.3146C17.314 32.2465 15.7799 28.5583 15.7799 24.25H14.8008C14.2133 24.25 13.7407 24.0711 13.3829 23.7134C13.0252 23.3557 12.8451 22.8818 12.8424 22.2917C12.8398 21.7016 13.02 21.2276 13.3829 20.8699C13.7459 20.5122 14.2185 20.3333 14.8008 20.3333H15.7799C15.7799 17.3958 16.498 14.7521 17.9341 12.4021C19.3702 10.0521 21.2633 8.19167 23.6133 6.82083V10.5417C23.6133 11.1292 23.7934 11.6031 24.1538 11.9634C24.5141 12.3237 24.9867 12.5026 25.5716 12.5C26.1565 12.4974 26.6304 12.3185 26.9934 11.9634C27.3563 11.6083 27.5352 11.1344 27.5299 10.5417V5.25417C28.1174 5.05833 28.7376 4.91211 29.3904 4.8155C30.0431 4.71889 30.7286 4.66928 31.4466 4.66667C32.1647 4.66406 32.8501 4.71367 33.5029 4.8155C34.1556 4.91733 34.7758 5.06356 35.3633 5.25417V10.5417C35.3633 11.1292 35.5434 11.6031 35.9038 11.9634C36.2641 12.3237 36.7367 12.5026 37.3216 12.5C37.9065 12.4974 38.3804 12.3185 38.7434 11.9634C39.1063 11.6083 39.2852 11.1344 39.2799 10.5417V6.82083C41.6299 8.19167 43.523 10.0521 44.9591 12.4021C46.3952 14.7521 47.1133 17.3958 47.1133 20.3333H48.0924C48.68 20.3333 49.1539 20.5135 49.5142 20.8738C49.8745 21.2342 50.0534 21.7068 50.0508 22.2917C50.0482 22.8766 49.8693 23.3505 49.5142 23.7134C49.1591 24.0764 48.6852 24.2552 48.0924 24.25H47.1133C47.1133 28.5583 45.5793 32.2465 42.5112 35.3146C39.4431 38.3826 35.7549 39.9167 31.4466 39.9167ZM31.4466 32.0833C33.6008 32.0833 35.4455 31.317 36.9809 29.7843C38.5162 28.2515 39.2826 26.4068 39.2799 24.25H23.6133C23.6133 26.4042 24.3809 28.2489 25.9163 29.7843C27.4516 31.3196 29.2951 32.0859 31.4466 32.0833ZM60.8216 47.75L60.2341 44.8125C59.8424 44.6819 59.4678 44.5357 59.11 44.3738C58.7523 44.2119 58.409 43.9665 58.0799 43.6375L55.3383 44.6167L53.3799 41.0917L55.5341 39.1333V36.7833L53.3799 34.825L55.3383 31.3L58.0799 32.2792C58.3411 32.0181 58.6674 31.7896 59.0591 31.5938C59.4508 31.3979 59.8424 31.2347 60.2341 31.1042L60.8216 28.1667H64.7383L65.3258 31.1042C65.7175 31.2347 66.1091 31.3979 66.5008 31.5938C66.8925 31.7896 67.2188 32.0181 67.4799 32.2792L70.2216 31.3L72.18 34.825L70.0258 36.7833V39.1333L72.18 41.0917L70.2216 44.6167L67.4799 43.6375C67.1536 43.9639 66.8115 44.2093 66.4538 44.3738C66.0961 44.5383 65.7201 44.6846 65.3258 44.8125L64.7383 47.75H60.8216ZM62.7799 40.8958C63.5633 40.8958 64.2487 40.6021 64.8362 40.0146C65.4237 39.4271 65.7175 38.7417 65.7175 37.9583C65.7175 37.175 65.4237 36.4896 64.8362 35.9021C64.2487 35.3146 63.5633 35.0208 62.7799 35.0208C61.9966 35.0208 61.3112 35.3146 60.7237 35.9021C60.1362 36.4896 59.8424 37.175 59.8424 37.9583C59.8424 38.7417 60.1362 39.4271 60.7237 40.0146C61.3112 40.6021 61.9966 40.8958 62.7799 40.8958ZM69.83 28.1667L69.0466 24.0542C68.4591 23.8583 67.9212 23.6142 67.433 23.3217C66.9447 23.0293 66.5034 22.6859 66.1091 22.2917L61.9966 23.6625L59.2549 18.9625L62.5841 16.025C62.4536 15.6986 62.3883 15.4375 62.3883 15.2417V13.675C62.3883 13.4792 62.4536 13.2181 62.5841 12.8917L59.2549 9.95417L61.9966 5.25417L66.1091 6.625C66.5008 6.23333 66.9421 5.88997 67.433 5.59492C67.9238 5.29986 68.4617 5.05572 69.0466 4.8625L69.83 0.75H75.3133L76.0966 4.8625C76.6841 5.05833 77.2233 5.30378 77.7142 5.59883C78.2051 5.89389 78.6451 6.23594 79.0341 6.625L83.1466 5.25417L85.8883 9.95417L82.5591 12.8917C82.6897 13.2181 82.755 13.4792 82.755 13.675V15.2417C82.755 15.4375 82.6897 15.6986 82.5591 16.025L85.8883 18.9625L83.1466 23.6625L79.0341 22.2917C78.6425 22.6833 78.2025 23.0267 77.7142 23.3217C77.2259 23.6168 76.6867 23.8609 76.0966 24.0542L75.3133 28.1667H69.83ZM72.5716 19.3542C73.9425 19.3542 75.1018 18.8803 76.0496 17.9324C76.9975 16.9846 77.4701 15.8266 77.4675 14.4583C77.4648 13.0901 76.9909 11.9308 76.0457 10.9803C75.1005 10.0299 73.9425 9.55728 72.5716 9.5625C71.2008 9.56772 70.0415 10.0416 69.0936 10.9843C68.1458 11.9269 67.6732 13.0849 67.6758 14.4583C67.6784 15.8318 68.1523 16.9911 69.0975 17.9363C70.0428 18.8816 71.2008 19.3542 72.5716 19.3542Z"/>
</mask>
<path d="M0.113281 71.25V60.2833C0.113281 58.1292 0.668143 56.1056 1.77786 54.2125C2.88759 52.3194 4.42162 50.8833 6.37995 49.9042C9.70912 48.2069 13.4626 46.7708 17.6404 45.5958C21.8181 44.4208 26.4202 43.8333 31.4466 43.8333C36.473 43.8333 41.0751 44.4208 45.2529 45.5958C49.4306 46.7708 53.1841 48.2069 56.5133 49.9042C58.4716 50.8833 60.0056 52.3194 61.1154 54.2125C62.2251 56.1056 62.7799 58.1292 62.7799 60.2833V71.25H0.113281ZM31.4466 39.9167C27.1383 39.9167 23.4501 38.3826 20.382 35.3146C17.314 32.2465 15.7799 28.5583 15.7799 24.25H14.8008C14.2133 24.25 13.7407 24.0711 13.3829 23.7134C13.0252 23.3557 12.8451 22.8818 12.8424 22.2917C12.8398 21.7016 13.02 21.2276 13.3829 20.8699C13.7459 20.5122 14.2185 20.3333 14.8008 20.3333H15.7799C15.7799 17.3958 16.498 14.7521 17.9341 12.4021C19.3702 10.0521 21.2633 8.19167 23.6133 6.82083V10.5417C23.6133 11.1292 23.7934 11.6031 24.1538 11.9634C24.5141 12.3237 24.9867 12.5026 25.5716 12.5C26.1565 12.4974 26.6304 12.3185 26.9934 11.9634C27.3563 11.6083 27.5352 11.1344 27.5299 10.5417V5.25417C28.1174 5.05833 28.7376 4.91211 29.3904 4.8155C30.0431 4.71889 30.7286 4.66928 31.4466 4.66667C32.1647 4.66406 32.8501 4.71367 33.5029 4.8155C34.1556 4.91733 34.7758 5.06356 35.3633 5.25417V10.5417C35.3633 11.1292 35.5434 11.6031 35.9038 11.9634C36.2641 12.3237 36.7367 12.5026 37.3216 12.5C37.9065 12.4974 38.3804 12.3185 38.7434 11.9634C39.1063 11.6083 39.2852 11.1344 39.2799 10.5417V6.82083C41.6299 8.19167 43.523 10.0521 44.9591 12.4021C46.3952 14.7521 47.1133 17.3958 47.1133 20.3333H48.0924C48.68 20.3333 49.1539 20.5135 49.5142 20.8738C49.8745 21.2342 50.0534 21.7068 50.0508 22.2917C50.0482 22.8766 49.8693 23.3505 49.5142 23.7134C49.1591 24.0764 48.6852 24.2552 48.0924 24.25H47.1133C47.1133 28.5583 45.5793 32.2465 42.5112 35.3146C39.4431 38.3826 35.7549 39.9167 31.4466 39.9167ZM31.4466 32.0833C33.6008 32.0833 35.4455 31.317 36.9809 29.7843C38.5162 28.2515 39.2826 26.4068 39.2799 24.25H23.6133C23.6133 26.4042 24.3809 28.2489 25.9163 29.7843C27.4516 31.3196 29.2951 32.0859 31.4466 32.0833ZM60.8216 47.75L60.2341 44.8125C59.8424 44.6819 59.4678 44.5357 59.11 44.3738C58.7523 44.2119 58.409 43.9665 58.0799 43.6375L55.3383 44.6167L53.3799 41.0917L55.5341 39.1333V36.7833L53.3799 34.825L55.3383 31.3L58.0799 32.2792C58.3411 32.0181 58.6674 31.7896 59.0591 31.5938C59.4508 31.3979 59.8424 31.2347 60.2341 31.1042L60.8216 28.1667H64.7383L65.3258 31.1042C65.7175 31.2347 66.1091 31.3979 66.5008 31.5938C66.8925 31.7896 67.2188 32.0181 67.4799 32.2792L70.2216 31.3L72.18 34.825L70.0258 36.7833V39.1333L72.18 41.0917L70.2216 44.6167L67.4799 43.6375C67.1536 43.9639 66.8115 44.2093 66.4538 44.3738C66.0961 44.5383 65.7201 44.6846 65.3258 44.8125L64.7383 47.75H60.8216ZM62.7799 40.8958C63.5633 40.8958 64.2487 40.6021 64.8362 40.0146C65.4237 39.4271 65.7175 38.7417 65.7175 37.9583C65.7175 37.175 65.4237 36.4896 64.8362 35.9021C64.2487 35.3146 63.5633 35.0208 62.7799 35.0208C61.9966 35.0208 61.3112 35.3146 60.7237 35.9021C60.1362 36.4896 59.8424 37.175 59.8424 37.9583C59.8424 38.7417 60.1362 39.4271 60.7237 40.0146C61.3112 40.6021 61.9966 40.8958 62.7799 40.8958ZM69.83 28.1667L69.0466 24.0542C68.4591 23.8583 67.9212 23.6142 67.433 23.3217C66.9447 23.0293 66.5034 22.6859 66.1091 22.2917L61.9966 23.6625L59.2549 18.9625L62.5841 16.025C62.4536 15.6986 62.3883 15.4375 62.3883 15.2417V13.675C62.3883 13.4792 62.4536 13.2181 62.5841 12.8917L59.2549 9.95417L61.9966 5.25417L66.1091 6.625C66.5008 6.23333 66.9421 5.88997 67.433 5.59492C67.9238 5.29986 68.4617 5.05572 69.0466 4.8625L69.83 0.75H75.3133L76.0966 4.8625C76.6841 5.05833 77.2233 5.30378 77.7142 5.59883C78.2051 5.89389 78.6451 6.23594 79.0341 6.625L83.1466 5.25417L85.8883 9.95417L82.5591 12.8917C82.6897 13.2181 82.755 13.4792 82.755 13.675V15.2417C82.755 15.4375 82.6897 15.6986 82.5591 16.025L85.8883 18.9625L83.1466 23.6625L79.0341 22.2917C78.6425 22.6833 78.2025 23.0267 77.7142 23.3217C77.2259 23.6168 76.6867 23.8609 76.0966 24.0542L75.3133 28.1667H69.83ZM72.5716 19.3542C73.9425 19.3542 75.1018 18.8803 76.0496 17.9324C76.9975 16.9846 77.4701 15.8266 77.4675 14.4583C77.4648 13.0901 76.9909 11.9308 76.0457 10.9803C75.1005 10.0299 73.9425 9.55728 72.5716 9.5625C71.2008 9.56772 70.0415 10.0416 69.0936 10.9843C68.1458 11.9269 67.6732 13.0849 67.6758 14.4583C67.6784 15.8318 68.1523 16.9911 69.0975 17.9363C70.0428 18.8816 71.2008 19.3542 72.5716 19.3542Z" stroke="black" stroke-width="2" mask="url(#path-1-inside-1_1005_11804)"/>
</svg>
